<svg width="36" height="36" viewBox="0 0 36 36" fill="none" xmlns="http://www.w3.org/2000/svg">
<rect width="36" height="36" rx="4" fill="#313131"/>
<g clip-path="url(#clip0_1_172)">
<path d="M18 21.4446C20.4545 21.4446 22.4444 19.4547 22.4444 17.0001C22.4444 14.5455 20.4545 12.5557 18 12.5557C15.5454 12.5557 13.5555 14.5455 13.5555 17.0001C13.5555 19.4547 15.5454 21.4446 18 21.4446Z" stroke="white" stroke-width="2.3" stroke-linecap="round" stroke-linejoin="round"/>
<path d="M8 21.4444V12.5556C8 9.48731 10.4873 7 13.5556 7H22.4444C25.5127 7 28 9.48731 28 12.5556V21.4444C28 24.5127 25.5127 27 22.4444 27H13.5556C10.4873 27 8 24.5127 8 21.4444Z" stroke="white" stroke-width="2.5"/>
<path d="M24.1111 10.9007L24.1228 10.8877" stroke="white" stroke-width="2.5" stroke-linecap="round" stroke-linejoin="round"/>
</g>
<defs>
<clipPath id="clip0_1_172">
<rect width="24" height="24" fill="white" transform="translate(6 5)"/>
</clipPath>
</defs>
</svg>
